# Blender 3.3.1
# www.blender.org
o y1s
v -0.500000 0.500000 0.500000
v 0.500000 0.500000 0.500000
v -0.500000 0.500000 -0.500000
v 0.500000 0.500000 -0.500000
v -0.500000 -0.500000 0.500000
v 0.500000 -0.500000 0.500000
v -0.500000 -0.500000 -0.500000
v 0.500000 -0.500000 -0.500000
v -0.470000 0.500000 0.470000
v 0.470000 0.500000 0.470000
v 0.470000 0.500000 -0.470000
v -0.470000 0.500000 -0.470000
v -0.470000 -0.500000 0.470000
v -0.470000 -0.500000 -0.470000
v 0.470000 -0.500000 -0.470000
v 0.470000 -0.500000 0.470000
v -0.500000 0.470000 0.470000
v -0.500000 0.470000 -0.470000
v -0.500000 -0.470000 -0.470000
v -0.500000 -0.470000 0.470000
v 0.470000 0.470000 0.500000
v -0.470000 0.470000 0.500000
v -0.470000 -0.470000 0.500000
v 0.470000 -0.470000 0.500000
v 0.500000 0.470000 -0.470000
v 0.500000 0.470000 0.470000
v 0.500000 -0.470000 0.470000
v 0.500000 -0.470000 -0.470000
v -0.470000 0.470000 -0.500000
v 0.470000 0.470000 -0.500000
v 0.470000 -0.470000 -0.500000
v -0.470000 -0.470000 -0.500000
v 0.470000 -0.470000 -0.470000
v -0.470000 0.470000 -0.470000
v -0.470000 -0.470000 0.470000
v 0.470000 -0.470000 0.470000
v -0.470000 0.470000 0.470000
v 0.470000 0.470000 0.470000
v -0.470000 -0.470000 -0.470000
v 0.470000 0.470000 -0.470000
vn 1.0000 -0.0000 -0.0000
vn -0.0000 -0.0000 1.0000
vn -0.0000 1.0000 -0.0000
vn -0.0000 -0.0000 -1.0000
vn -0.0000 -1.0000 -0.0000
vn -1.0000 -0.0000 -0.0000
vt 0.000000 0.000000
vt 0.000000 1.000000
vt 1.000000 0.000000
vt 1.000000 1.000000
vt 0.000000 1.000000
vt 1.000000 1.000000
vt 0.000000 1.000000
vt 1.000000 1.000000
vt 0.000000 0.000000
vt 1.000000 0.000000
vt 0.000000 0.000000
vt 0.000000 1.000000
vt 1.000000 0.000000
vt 0.000000 0.000000
vt 1.000000 1.000000
vt 1.000000 0.000000
vt 0.030000 0.030000
vt 0.030000 1.000000
vt 0.970000 0.030000
vt 0.030000 1.000000
vt 0.970000 1.000000
vt 0.970000 0.970000
vt 0.970000 1.000000
vt 0.970000 1.000000
vt 0.030000 0.970000
vt 0.030000 1.000000
vt 0.030000 0.030000
vt 0.030000 0.000000
vt 0.030000 0.000000
vt 0.030000 0.970000
vt 0.970000 0.000000
vt 0.970000 0.970000
vt 0.970000 0.000000
vt 0.970000 0.030000
vt 0.030000 0.000000
vt 0.970000 0.000000
vt 0.030000 0.970000
vt 0.000000 0.970000
vt 0.000000 0.030000
vt 0.970000 0.970000
vt 0.000000 0.970000
vt 0.000000 0.970000
vt 0.970000 0.030000
vt 0.000000 0.030000
vt 0.030000 0.030000
vt 0.000000 0.030000
vt 0.970000 0.970000
vt 0.970000 0.000000
vt 0.000000 0.970000
vt 0.000000 0.970000
vt 0.030000 0.970000
vt 0.030000 0.000000
vt 0.000000 0.030000
vt 0.030000 0.030000
vt 0.030000 0.000000
vt 0.970000 0.030000
vt 0.970000 0.000000
vt 0.000000 0.030000
vt 0.970000 0.970000
vt 1.000000 0.970000
vt 1.000000 0.970000
vt 0.030000 0.970000
vt 1.000000 0.030000
vt 0.030000 0.030000
vt 1.000000 0.030000
vt 0.970000 0.030000
vt 1.000000 0.970000
vt 1.000000 0.030000
vt 0.030000 0.970000
vt 1.000000 0.970000
vt 0.030000 1.000000
vt 0.970000 0.970000
vt 1.000000 0.970000
vt 0.970000 1.000000
vt 0.970000 1.000000
vt 0.970000 0.030000
vt 1.000000 0.030000
vt 0.030000 1.000000
vt 0.030000 0.030000
vt 1.000000 0.030000
vt 0.970000 0.970000
vt 0.970000 0.030000
vt 0.970000 0.970000
vt 0.030000 0.970000
vt 0.030000 0.030000
vt 0.970000 0.030000
vt 0.030000 0.030000
vt 0.030000 0.970000
vt 0.030000 0.030000
vt 0.970000 0.970000
vt 0.970000 0.030000
vt 0.030000 0.970000
vt 0.030000 0.970000
vt 0.030000 0.030000
vt 0.970000 0.030000
vt 0.970000 0.970000
s 0
f 12/24/1 9/18/1 37/88/1 34/83/1
f 14/29/2 15/33/2 33/82/2 39/94/2
f 19/42/3 20/46/3 35/85/3 39/93/3
f 22/50/1 23/53/1 35/85/1 37/88/1
f 26/61/4 27/65/4 36/86/4 38/90/4
f 31/75/3 32/78/3 39/93/3 33/81/3
f 1/1/3 2/3/3 10/19/3 9/17/3
f 2/3/3 4/8/3 11/22/3 10/19/3
f 4/8/3 3/7/3 12/25/3 11/22/3
f 3/7/3 1/1/3 9/17/3 12/25/3
f 5/9/5 7/12/5 14/30/5 13/27/5
f 7/12/5 8/15/5 15/32/5 14/30/5
f 8/15/5 6/10/5 16/34/5 15/32/5
f 6/10/5 5/9/5 13/27/5 16/34/5
f 1/2/6 3/6/6 18/40/6 17/37/6
f 3/6/6 7/13/6 19/43/6 18/40/6
f 7/13/6 5/9/6 20/45/6 19/43/6
f 5/9/6 1/2/6 17/37/6 20/45/6
f 2/4/2 1/2/2 22/51/2 21/47/2
f 1/2/2 5/9/2 23/54/2 22/51/2
f 5/9/2 6/10/2 24/56/2 23/54/2
f 6/10/2 2/4/2 21/47/2 24/56/2
f 4/8/1 2/5/1 26/62/1 25/59/1
f 2/5/1 6/11/1 27/64/1 26/62/1
f 6/11/1 8/16/1 28/66/1 27/64/1
f 8/16/1 4/8/1 25/59/1 28/66/1
f 3/7/4 4/8/4 30/72/4 29/69/4
f 4/8/4 8/16/4 31/76/4 30/72/4
f 8/16/4 7/14/4 32/79/4 31/76/4
f 7/14/4 3/7/4 29/69/4 32/79/4
f 10/20/6 11/23/6 40/96/6 38/92/6
f 9/18/4 10/21/4 38/90/4 37/88/4
f 11/23/2 12/26/2 34/84/2 40/96/2
f 13/28/1 14/31/1 39/95/1 35/85/1
f 15/33/6 16/35/6 36/87/6 33/82/6
f 16/36/4 13/28/4 35/85/4 36/86/4
f 37/88/1 35/85/1 39/95/1 34/83/1
f 20/46/4 17/38/4 37/88/4 35/85/4
f 18/41/2 19/44/2 39/94/2 34/84/2
f 17/39/5 18/41/5 34/84/5 37/89/5
f 40/96/6 33/82/6 36/87/6 38/92/6
f 25/60/5 26/63/5 38/91/5 40/96/5
f 27/65/3 28/67/3 33/81/3 36/86/3
f 28/68/2 25/60/2 40/96/2 33/82/2
f 21/48/5 22/52/5 37/89/5 38/91/5
f 23/55/3 24/57/3 36/86/3 35/85/3
f 24/58/6 21/49/6 38/92/6 36/87/6
f 34/84/2 39/94/2 33/82/2 40/96/2
f 32/80/1 29/70/1 34/83/1 39/95/1
f 30/73/6 31/77/6 33/82/6 40/96/6
f 29/71/5 30/74/5 40/96/5 34/84/5
